<?xml version="1.0" standalone="no"?><!DOCTYPE svg PUBLIC "-//W3C//DTD SVG 1.1//EN" "http://www.w3.org/Graphics/SVG/1.1/DTD/svg11.dtd"><svg t="1634977979774" class="icon" viewBox="0 0 1098 1024" version="1.1" xmlns="http://www.w3.org/2000/svg" p-id="10158" xmlns:xlink="http://www.w3.org/1999/xlink" width="51.46875" height="48"><defs><style type="text/css"></style></defs><path d="M549.372263 620.379562m-186.861314 0a186.861314 186.861314 0 1 0 373.722628 0 186.861314 186.861314 0 1 0-373.722628 0Z" fill="#00E2FF" p-id="10159"></path><path d="M881.275328 1024H217.469197A217.693431 217.693431 0 0 1 0 806.530803V217.469197A217.693431 217.693431 0 0 1 217.469197 0h663.806131A217.693431 217.693431 0 0 1 1098.744526 217.469197v589.061606A217.693431 217.693431 0 0 1 881.275328 1024zM217.469197 52.321168A165.334891 165.334891 0 0 0 52.321168 217.469197v589.061606A165.334891 165.334891 0 0 0 217.469197 971.678832h663.806131A165.334891 165.334891 0 0 0 1046.423358 806.530803V217.469197A165.334891 165.334891 0 0 0 881.275328 52.321168z" p-id="10160"></path><path d="M1065.109489 269.080292H26.160584a26.160584 26.160584 0 0 1 0-52.321168h1038.948905a26.160584 26.160584 0 0 1 0 52.321168zM1046.423358 523.211679H37.372263a26.160584 26.160584 0 0 1 0-52.321168h1009.051095a26.160584 26.160584 0 0 1 0 52.321168zM717.547445 769.868613H37.372263a26.160584 26.160584 0 0 1 0-52.321168h680.175182a26.160584 26.160584 0 0 1 0 52.321168z" p-id="10161"></path><path d="M726.890511 1024a26.160584 26.160584 0 0 1-26.160584-26.160584V242.919708a26.160584 26.160584 0 0 1 52.321168 0v754.919708a26.160584 26.160584 0 0 1-26.160584 26.160584zM377.459854 1018.394161a26.160584 26.160584 0 0 1-26.160584-26.160584V250.394161a26.160584 26.160584 0 0 1 52.321168 0v741.839416a26.160584 26.160584 0 0 1-26.160584 26.160584zM687.649635 175.649635h-276.554744a108.379562 108.379562 0 0 1-108.379563-108.379562V0h493.313869v67.270073a108.379562 108.379562 0 0 1-108.379562 108.379562zM355.036496 52.321168v14.948905a56.058394 56.058394 0 0 0 56.058395 56.058394h276.554744a56.058394 56.058394 0 0 0 56.058394-56.058394v-14.948905zM549.372263 702.59854a82.218978 82.218978 0 0 1 0-164.437956 22.423358 22.423358 0 0 1 0 44.846715 37.372263 37.372263 0 1 0 37.372263 37.372263 22.423358 22.423358 0 0 1 44.846715 0 82.218978 82.218978 0 0 1-82.218978 82.218978zM209.284672 433.107153a23.28292 23.28292 0 0 1-16.518541-6.839124l-44.174014-44.174014a22.423358 22.423358 0 0 1 31.691679-31.691679l29.000876 28.963503 73.847591-73.810219a22.423358 22.423358 0 0 1 31.691679 31.691679l-89.02073 89.02073a23.28292 23.28292 0 0 1-16.51854 6.839124z" p-id="10162"></path></svg>