<?xml version="1.0" standalone="no"?><!DOCTYPE svg PUBLIC "-//W3C//DTD SVG 1.1//EN" "http://www.w3.org/Graphics/SVG/1.1/DTD/svg11.dtd"><svg t="1634978180450" class="icon" viewBox="0 0 1024 1024" version="1.1" xmlns="http://www.w3.org/2000/svg" p-id="11937" xmlns:xlink="http://www.w3.org/1999/xlink" width="48" height="48"><defs><style type="text/css"></style></defs><path d="M911.466573 436.225084s-1.625684-85.077439-154.8012-197.430235c0 0-76.587758 8.489681-69.723761-69.723761L625.526901 108.378903l-110.546481 108.378903 52.744399 52.744399s132.764156 5.057682 86.703122 112.352796l-198.694655 198.694655-37.390721-5.057682L191.830658 800.197566s-15.353678 54.189451 23.843359 88.509437a99.527959 99.527959 0 0 0 78.213441 28.901041l222.899277-227.956959 3.431998-37.390722 227.956959-224.52496s11.921679-18.06315 33.958723-1.625683c0 0 61.23408 27.275357 56.176398 162.568354L880.759217 632.210266s47.686717-105.488799 30.707356-195.623919" fill="#90CAF9" p-id="11938"></path><path d="M350.063856 454.830129l93.567119 95.192803 96.999118-96.999118-96.999118-98.624802c78.213442-178.644558-147.937202-250.174634-147.937202-250.174634-42.809667-11.741048-34.139354 20.591992-34.139354 20.591992 90.315752 76.587758 74.781443 100.431117 74.781443 100.431116a156.788146 156.788146 0 0 1-85.077439 115.604163c-72.252602 30.707356-132.764156-72.252602-132.764156-72.252602-23.843359-5.057682-20.41136 22.037044-20.41136 22.037044 59.608397 259.567472 251.980949 164.194038 251.980949 164.194038z" fill="#90CAF9" p-id="11939"></path><path d="M909.660258 812.841771L644.312577 559.957664l-98.624801 96.999119L800.920092 921.220674l108.378903-108.378903M455.552655 580.730288l-37.390722-5.057683L191.830658 800.197566s-15.353678 54.189451 23.843359 88.509437a99.527959 99.527959 0 0 0 78.213441 28.901041l222.899277-227.956959 3.431998-37.390722z" fill="#71C171" p-id="11940"></path></svg>