<?xml version="1.0" standalone="no"?><!DOCTYPE svg PUBLIC "-//W3C//DTD SVG 1.1//EN" "http://www.w3.org/Graphics/SVG/1.1/DTD/svg11.dtd"><svg t="1636793114953" class="icon" viewBox="0 0 1024 1024" version="1.1" xmlns="http://www.w3.org/2000/svg" p-id="2808" xmlns:xlink="http://www.w3.org/1999/xlink" width="48" height="48"><defs><style type="text/css"></style></defs><path d="M777.30112 617.344a205.696 205.696 0 0 0-315.392 242.816 53.44 53.44 0 0 0-7.808 3.52L243.86112 979.2a56.32 56.32 0 0 1-81.024-61.44l40.512-244.928a59.968 59.968 0 0 0-16.128-51.52L16.91712 448a58.88 58.88 0 0 1 30.912-99.136L282.90112 312.96a56 56 0 0 0 41.984-32L429.97312 58.432a54.72 54.72 0 0 1 99.968 0l105.152 222.72a56.064 56.064 0 0 0 41.984 31.936l235.2 35.968a59.008 59.008 0 0 1 30.848 99.328l-165.824 168.96z m-202.88 133.44l112 89.472 279.296-257.024s18.944-17.024 35.008-3.84c4.8 3.84 10.56 15.36-2.176 33.28l-291.584 340.992s-22.528 30.464-48.896-0.256L532.50112 783.68s-14.848-23.04 3.584-36.928c6.272-4.608 20.672-11.776 38.4 4.032z" fill="#d81e06" p-id="2809"></path></svg>