<?xml version="1.0" standalone="no"?><!DOCTYPE svg PUBLIC "-//W3C//DTD SVG 1.1//EN" "http://www.w3.org/Graphics/SVG/1.1/DTD/svg11.dtd"><svg t="1634979729961" class="icon" viewBox="0 0 1024 1024" version="1.1" xmlns="http://www.w3.org/2000/svg" p-id="28772" xmlns:xlink="http://www.w3.org/1999/xlink" width="48" height="48"><defs><style type="text/css"></style></defs><path d="M205.494214 1013.649637H59.323915A53.718233 53.718233 0 0 1 5.666657 960.007622V57.087055A53.718233 53.718233 0 0 1 59.323915 3.44504h146.170299a53.718233 53.718233 0 0 1 53.657259 53.642015v902.920567a53.718233 53.718233 0 0 1-53.657259 53.642015zM83.713578 935.617959h97.390973V81.491961H83.713578z m426.651423 82.90961H364.194702a53.702989 53.702989 0 0 1-53.657258-53.657258V61.919257a53.718233 53.718233 0 0 1 53.657258-53.596285h146.170299a53.718233 53.718233 0 0 1 53.657259 53.596285v902.951054a53.718233 53.718233 0 0 1-53.657259 53.657258z m-121.780636-78.046921h97.390973V86.30892H388.584365z m428.450161 81.476718a53.733476 53.733476 0 0 1-52.864594-44.602596L611.749782 87.406455a53.702989 53.702989 0 0 1 43.825175-61.934501L799.641648 0.792664a53.702989 53.702989 0 0 1 61.949744 43.825176l152.435393 889.948315a53.702989 53.702989 0 0 1-43.825175 61.9345l-6.585209-38.45945 6.585209 38.45945-144.066691 24.67929a53.504823 53.504823 0 0 1-9.146123 0.777421zM692.784437 98.275098l144.188639 841.854948 96.034298-16.432535-144.23437-841.854948z" p-id="28773" fill="#d2d97a"></path></svg>