<?xml version="1.0" standalone="no"?><!DOCTYPE svg PUBLIC "-//W3C//DTD SVG 1.1//EN" "http://www.w3.org/Graphics/SVG/1.1/DTD/svg11.dtd"><svg t="1638171040822" class="icon" viewBox="0 0 1140 1024" version="1.1" xmlns="http://www.w3.org/2000/svg" p-id="10767" width="142.5" height="128" data-spm-anchor-id="a313x.7781069.0.i12" xmlns:xlink="http://www.w3.org/1999/xlink"><defs><style type="text/css"></style></defs><path d="M1140.053333 955.733333h-259.413333c-13.653333-122.88-75.093333-225.28-157.013333-300.373333-13.653333-20.48-13.653333-47.786667-13.653334-68.266667 0-95.573333 75.093333-177.493333 170.666667-177.493333s170.666667 81.92 170.666667 177.493333c0 61.44-34.133333 122.88-81.92 150.186667 88.746667 27.306667 157.013333 116.053333 170.666666 218.453333z m-286.72 0h-853.333333c20.48-163.84 136.533333-300.373333 286.72-361.813333-81.92-54.613333-136.533333-143.36-136.533333-245.76 0-157.013333 122.88-286.72 273.066666-286.72 157.013333 0 273.066667 122.88 273.066667 286.72 0 102.4-54.613333 197.973333-136.533333 245.76 163.84 61.44 273.066667 197.973333 293.546666 361.813333z" p-id="10768" fill="#e98f36"></path></svg>