<?xml version="1.0" standalone="no"?><!DOCTYPE svg PUBLIC "-//W3C//DTD SVG 1.1//EN" "http://www.w3.org/Graphics/SVG/1.1/DTD/svg11.dtd"><svg t="1638172278580" class="icon" viewBox="0 0 1024 1024" version="1.1" xmlns="http://www.w3.org/2000/svg" p-id="13658" xmlns:xlink="http://www.w3.org/1999/xlink" width="128" height="128"><defs><style type="text/css"></style></defs><path d="M956.265721 27.178276A92.434448 92.434448 0 0 0 890.443334 0.141554H217.356349a92.292895 92.292895 0 0 0-92.859109 92.859108v67.521029h58.744711V93.000662a33.406631 33.406631 0 0 1 34.114398-34.114398h673.086985a33.406631 33.406631 0 0 1 34.114398 34.114398v838.138389a33.406631 33.406631 0 0 1-34.114398 34.114398H217.356349a33.406631 33.406631 0 0 1-34.114398-34.114398v-67.521029H124.49724v67.521029a92.292895 92.292895 0 0 0 92.859109 92.859109h673.086985a92.292895 92.292895 0 0 0 92.859109-92.859109V93.000662a92.292895 92.292895 0 0 0-27.036722-65.822386z" p-id="13659" fill="#e98f36"></path><path d="M65.894083 334.207859h177.791221a25.479634 25.479634 0 0 0 25.33808-25.33808v-76.155793a25.479634 25.479634 0 0 0-25.33808-25.33808H65.894083A25.479634 25.479634 0 0 0 40.556003 232.713986v76.155793a25.479634 25.479634 0 0 0 25.33808 25.33808z m25.33808-76.155793h127.398168v25.33808h-127.398168zM65.894083 575.55661h177.791221a25.479634 25.479634 0 0 0 25.33808-25.33808v-76.155793a25.479634 25.479634 0 0 0-25.33808-25.33808H65.894083A25.479634 25.479634 0 0 0 40.556003 474.062737v76.155793a25.479634 25.479634 0 0 0 25.33808 25.33808z m25.33808-76.155793h127.398168v25.33808h-127.398168zM269.164937 791.425727v-76.155793a25.479634 25.479634 0 0 0-25.33808-25.33808H65.894083A25.479634 25.479634 0 0 0 40.556003 715.269934v76.155793a25.479634 25.479634 0 0 0 25.33808 25.33808h177.791221a25.479634 25.479634 0 0 0 25.479633-25.33808z m-50.817713-25.054973h-127.398168v-25.33808h127.398168zM347.019373 656.666777a42.466056 42.466056 0 0 0 42.466056 53.224123h330.102807a42.466056 42.466056 0 0 0 41.616735-53.931891 216.152224 216.152224 0 0 0-125.274865-144.38459 133.626522 133.626522 0 1 0-164.485189 0 212.330279 212.330279 0 0 0-124.425544 145.092358z m207.092799-329.111933a77.005115 77.005115 0 1 1-77.005115 77.005115 77.146668 77.146668 0 0 1 77.005115-77.005115z m0 222.80524a157.973728 157.973728 0 0 1 146.224786 102.767855H407.179619a155.708871 155.708871 0 0 1 146.083232-102.201641z" p-id="13660" fill="#e98f36"></path></svg>