<?xml version="1.0" standalone="no"?><!DOCTYPE svg PUBLIC "-//W3C//DTD SVG 1.1//EN" "http://www.w3.org/Graphics/SVG/1.1/DTD/svg11.dtd"><svg t="1634979920909" class="icon" viewBox="0 0 1024 1024" version="1.1" xmlns="http://www.w3.org/2000/svg" p-id="30735" xmlns:xlink="http://www.w3.org/1999/xlink" width="48" height="48"><defs><style type="text/css"></style></defs><path d="M251.345455 484.072727s-16.290909 16.290909-37.236364 16.290909-37.236364-16.290909-37.236364-16.290909c0-60.509091 18.618182-134.981818 25.6-160.581818-6.981818-4.654545-9.309091-9.309091-9.309091-18.618182s6.981818-18.618182 16.290909-20.945454v-41.890909l11.636364 6.981818v34.909091c9.309091 2.327273 16.290909 11.636364 16.290909 20.945454 0 6.981818-4.654545 13.963636-9.309091 18.618182 4.654545 16.290909 13.963636 51.2 18.618182 93.090909 2.327273 20.945455 4.654545 44.218182 4.654546 67.490909z" fill="#806d9e" p-id="30736"></path><path d="M281.6 470.109091v25.6c2.327273 23.272727 9.309091 46.545455 25.6 67.490909 9.309091 11.636364 13.963636 11.636364 27.927273 6.981818 4.654545 0 11.636364 20.945455 13.963636 25.6 16.290909 37.236364 44.218182 81.454545 95.418182 100.072727 34.909091 13.963636 74.472727 16.290909 109.381818 6.981819 37.236364-11.636364 67.490909-37.236364 90.763636-69.818182 20.945455-27.927273 27.927273-46.545455 32.581819-53.527273 2.327273-2.327273 2.327273-6.981818 4.654545-6.981818s6.981818 2.327273 9.309091 2.327273c6.981818 0 11.636364-4.654545 16.290909-9.309091 13.963636-18.618182 23.272727-41.890909 25.6-67.490909v-25.6c0-13.963636-9.309091-25.6-25.6-25.6h-2.327273l-2.327272-4.654546s0-11.636364 2.327272-16.290909c0-18.618182 2.327273-39.563636 4.654546-58.181818 0-6.981818 2.327273-16.290909 2.327273-23.272727l-48.872728-13.963637c-2.327273 0-23.272727-4.654545-23.272727-4.654545-11.636364-2.327273-79.127273-6.981818-144.290909-9.309091-51.2 0-100.072727 4.654545-111.709091 6.981818-4.654545 0-11.636364 2.327273-13.963636 2.327273 0 0-37.236364 6.981818-51.2 13.963636l-13.963637 4.654546c0 18.618182 2.327273 37.236364 2.327273 55.854545 0 13.963636 2.327273 30.254545 2.327273 44.218182h-2.327273c-16.290909 0-23.272727 13.963636-25.6 25.6z m76.8-39.563636c41.890909 0 79.127273-2.327273 111.709091-9.309091 11.636364-2.327273 25.6-4.654545 39.563636-6.981819 41.890909-9.309091 74.472727-25.6 102.4-46.545454 13.963636 16.290909 32.581818 30.254545 60.509091 41.890909h2.327273v11.636364c-2.327273 37.236364-6.981818 86.109091-13.963636 111.709091-6.981818 30.254545-58.181818 151.272727-158.254546 148.945454-16.290909 0-32.581818-4.654545-46.545454-9.309091-51.2-16.290909-79.127273-65.163636-100.072728-130.327273-9.309091-27.927273-13.963636-60.509091-13.963636-97.745454 0-6.981818 0-16.290909-2.327273-23.272727 6.981818 9.309091 13.963636 9.309091 18.618182 9.309091z" fill="#806d9e" p-id="30737"></path><path d="M702.836364 256c0-13.963636 0-6.981818-2.327273-20.945455-2.327273-6.981818-2.327273-11.636364-9.309091-13.963636-6.981818-4.654545-13.963636-9.309091-20.945455-11.636364-18.618182-9.309091-37.236364-16.290909-58.181818-18.618181-44.218182-9.309091-88.436364-11.636364-132.654545-9.309091-18.618182 0-37.236364 2.327273-55.854546 4.654545-30.254545 4.654545-60.509091 11.636364-88.436363 27.927273-9.309091 2.327273-16.290909 6.981818-18.618182 18.618182-6.981818 27.927273-6.981818 53.527273-6.981818 81.454545v2.327273c16.290909-6.981818 34.909091-11.636364 53.527272-13.963636 11.636364-2.327273 25.6-4.654545 39.563637-4.654546 9.309091-2.327273 46.545455-4.654545 81.454545-4.654545 32.581818 0 65.163636 0 100.072728 2.327272 23.272727 2.327273 48.872727 4.654545 72.145454 9.309091 4.654545 0 11.636364 2.327273 16.290909 4.654546l32.581818 9.309091c0-16.290909 0-48.872727-2.327272-62.836364z" fill="#806d9e" p-id="30738"></path><path d="M293.236364 228.072727c4.654545-20.945455 18.618182-27.927273 30.254545-34.909091 27.927273-16.290909 58.181818-25.6 97.745455-30.254545 16.290909-2.327273 76.8-4.654545 86.109091-4.654546 39.563636 0 74.472727 2.327273 109.381818 9.309091 23.272727 4.654545 44.218182 11.636364 62.836363 20.945455 6.981818 4.654545 23.272727 13.963636 23.272728 13.963636 11.636364 6.981818 16.290909 18.618182 18.618181 27.927273 2.327273 11.636364 2.327273 23.272727 2.327273 32.581818v9.309091s81.454545-46.545455 121.018182-69.818182c-6.981818-4.654545-9.309091-6.981818-13.963636-9.309091-102.4-58.181818-204.8-116.363636-309.527273-174.545454-11.636364-6.981818-18.618182-6.981818-30.254546 0-100.072727 58.181818-202.472727 114.036364-302.545454 172.218182-6.981818 4.654545-11.636364 6.981818-20.945455 13.963636 18.618182 9.309091 118.690909 69.818182 118.690909 69.818182 2.327273-18.618182 4.654545-32.581818 6.981819-46.545455zM833.163636 809.890909c-51.2-32.581818-174.545455-76.8-176.872727-76.8 0 0-30.254545 62.836364-41.890909 88.436364-9.309091 16.290909-23.272727 18.618182-32.581818 2.327272-9.309091-13.963636-32.581818-46.545455-34.909091-51.2-6.981818-9.309091-13.963636-11.636364-23.272727-2.327272-2.327273 2.327273-11.636364 11.636364-16.290909 11.636363-4.654545 0-13.963636-9.309091-16.29091-11.636363-9.309091-9.309091-13.963636-9.309091-23.272727 2.327272s-23.272727 34.909091-32.581818 44.218182c-18.618182 23.272727-34.909091 18.618182-44.218182 0-11.636364-30.254545-34.909091-86.109091-34.909091-86.109091-2.327273 0-125.672727 44.218182-176.872727 76.8-116.363636 72.145455-114.036364 197.818182-114.036364 197.818182h891.345455c2.327273 4.654545 16.290909-102.4-123.345455-195.490909z" fill="#806d9e" p-id="30739"></path><path d="M958.836364 1024c-2.327273 0-2.327273 0 0 0H65.163636c-9.309091 0-16.290909-6.981818-16.290909-13.963636 0-2.327273 0-34.909091 13.963637-76.8 13.963636-39.563636 41.890909-93.090909 107.054545-134.981819 51.2-34.909091 179.2-79.127273 181.527273-79.127272 6.981818-2.327273 13.963636 2.327273 16.290909 6.981818 0 2.327273 0 2.327273 6.981818 13.963636 6.981818 18.618182 20.945455 51.2 30.254546 72.145455 2.327273 4.654545 4.654545 6.981818 4.654545 6.981818s4.654545-2.327273 11.636364-9.309091c4.654545-6.981818 13.963636-20.945455 23.272727-30.254545 4.654545-4.654545 6.981818-9.309091 9.309091-13.963637 4.654545-6.981818 11.636364-13.963636 23.272727-13.963636s18.618182 6.981818 23.272727 11.636364l4.654546 4.654545c2.327273-2.327273 4.654545-2.327273 4.654545-4.654545 6.981818-6.981818 16.290909-11.636364 23.272728-11.636364 9.309091 0 16.290909 4.654545 23.272727 13.963636 2.327273 2.327273 9.309091 11.636364 16.290909 23.272728 6.981818 9.309091 13.963636 20.945455 18.618182 27.927272l4.654545 4.654546s2.327273-2.327273 2.327273-4.654546c4.654545-9.309091 41.890909-88.436364 44.218182-88.436363 2.327273-4.654545 9.309091-9.309091 16.290909-6.981819 4.654545 0 130.327273 44.218182 181.527273 79.127273 32.581818 20.945455 60.509091 46.545455 81.454545 72.145455 16.290909 20.945455 30.254545 44.218182 39.563636 67.490909 6.981818 16.290909 9.309091 34.909091 11.636364 51.2 0 2.327273 2.327273 18.618182 0 25.6-2.327273 2.327273-9.309091 6.981818-13.963636 6.981818zM81.454545 993.745455h861.09091c-2.327273-30.254545-18.618182-102.4-118.69091-169.89091-39.563636-25.6-128-60.509091-160.581818-72.145454-9.309091 18.618182-27.927273 55.854545-37.236363 76.8-4.654545 6.981818-11.636364 20.945455-27.927273 23.272727-6.981818 0-20.945455 0-32.581818-16.290909-4.654545-6.981818-11.636364-16.290909-18.618182-27.927273-6.981818-11.636364-13.963636-18.618182-16.290909-23.272727l-6.981818 6.981818c-6.981818 6.981818-11.636364 9.309091-18.618182 9.309091-4.654545 0-11.636364-2.327273-18.618182-9.309091-2.327273-2.327273-6.981818-4.654545-6.981818-6.981818-2.327273 4.654545-6.981818 9.309091-9.309091 13.963636-6.981818 11.636364-16.290909 23.272727-23.272727 32.581819-16.290909 20.945455-30.254545 23.272727-39.563637 20.945454-11.636364-2.327273-23.272727-9.309091-27.927272-25.6-9.309091-20.945455-20.945455-53.527273-30.254546-72.145454-34.909091 11.636364-121.018182 44.218182-160.581818 72.145454-86.109091 51.2-102.4 132.654545-107.054546 167.563637z m642.327273-705.163637c-2.327273 0-4.654545 0-6.981818-2.327273-4.654545-2.327273-6.981818-6.981818-6.981818-13.963636v-9.309091c0-9.309091 0-18.618182-2.327273-30.254545-2.327273-9.309091-4.654545-13.963636-11.636364-18.618182-6.981818-4.654545-16.290909-11.636364-20.945454-13.963636-18.618182-9.309091-37.236364-16.290909-58.181818-20.945455-32.581818-6.981818-67.490909-9.309091-104.727273-9.309091-9.309091 0-67.490909 2.327273-83.781818 4.654546-37.236364 4.654545-65.163636 13.963636-90.763637 27.927272-11.636364 6.981818-18.618182 11.636364-23.272727 25.6-2.327273 11.636364-4.654545 25.6-4.654545 41.890909 0 4.654545-2.327273 9.309091-6.981818 13.963637-4.654545 2.327273-11.636364 2.327273-16.29091 0 0 0-102.4-58.181818-118.690909-69.818182-11.636364 0-13.963636-4.654545-13.963636-9.309091s2.327273-11.636364 6.981818-13.963636c2.327273-2.327273 4.654545-2.327273 6.981818-4.654546 4.654545-2.327273 9.309091-6.981818 13.963637-9.309091 20.945455-11.636364 44.218182-23.272727 65.163636-37.236363C325.818182 95.418182 404.945455 48.872727 486.4 4.654545c16.290909-9.309091 30.254545-9.309091 44.218182 0 69.818182 39.563636 141.963636 81.454545 211.781818 121.018182 32.581818 18.618182 62.836364 37.236364 95.418182 55.854546 4.654545 2.327273 9.309091 4.654545 13.963636 9.309091l2.327273 2.327272c4.654545 2.327273 6.981818 6.981818 6.981818 11.636364s-2.327273 9.309091-6.981818 11.636364c-37.236364 20.945455-121.018182 69.818182-121.018182 69.818181-4.654545 2.327273-6.981818 2.327273-9.309091 2.327273z m-216.436363-146.618182c39.563636 0 76.8 4.654545 111.70909 11.636364 25.6 4.654545 46.545455 11.636364 67.49091 23.272727 6.981818 4.654545 23.272727 13.963636 25.6 13.963637 16.290909 11.636364 20.945455 25.6 25.6 37.236363 2.327273 6.981818 2.327273 13.963636 2.327272 20.945455 20.945455-11.636364 51.2-30.254545 76.8-44.218182-30.254545-16.290909-58.181818-32.581818-88.436363-48.872727-69.818182-39.563636-141.963636-79.127273-211.781819-121.018182-6.981818-4.654545-9.309091-4.654545-13.963636 0-83.781818 44.218182-162.909091 88.436364-242.036364 132.654545L197.818182 202.472727c23.272727 13.963636 55.854545 32.581818 76.8 44.218182 0-9.309091 2.327273-16.290909 4.654545-23.272727 6.981818-27.927273 25.6-37.236364 37.236364-44.218182 27.927273-16.290909 60.509091-25.6 102.4-32.581818 18.618182-2.327273 79.127273-4.654545 88.436364-4.654546z" fill="#806d9e" p-id="30740"></path><path d="M435.2 472.436364m-13.963636 0a13.963636 13.963636 0 1 0 27.927272 0 13.963636 13.963636 0 1 0-27.927272 0Z" fill="#806d9e" p-id="30741"></path><path d="M579.490909 472.436364m-13.963636 0a13.963636 13.963636 0 1 0 27.927272 0 13.963636 13.963636 0 1 0-27.927272 0Z" fill="#806d9e" p-id="30742"></path><path d="M551.563636 609.745455s-20.945455 13.963636-44.218181 13.963636-44.218182-13.963636-44.218182-13.963636 20.945455 6.981818 44.218182 6.981818 44.218182-6.981818 44.218181-6.981818z" fill="#806d9e" p-id="30743"></path><path d="M421.236364 114.036364c-4.654545-6.981818-2.327273-16.290909 4.654545-18.618182l58.181818-32.581818c6.981818-4.654545 16.290909-2.327273 18.618182 4.654545 4.654545 6.981818 2.327273 16.290909-4.654545 18.618182L442.181818 121.018182c-6.981818 2.327273-16.290909 0-20.945454-6.981818z" fill="#806d9e" p-id="30744"></path><path d="M393.309091 130.327273m-13.963636 0a13.963636 13.963636 0 1 0 27.927272 0 13.963636 13.963636 0 1 0-27.927272 0Z" fill="#806d9e" p-id="30745"></path></svg>