<?xml version="1.0" standalone="no"?><!DOCTYPE svg PUBLIC "-//W3C//DTD SVG 1.1//EN" "http://www.w3.org/Graphics/SVG/1.1/DTD/svg11.dtd"><svg t="1634978451914" class="icon" viewBox="0 0 1024 1024" version="1.1" xmlns="http://www.w3.org/2000/svg" p-id="19275" xmlns:xlink="http://www.w3.org/1999/xlink" width="48" height="48"><defs><style type="text/css"></style></defs><path d="M612.305455 486.632727a34.909091 34.909091 0 0 0 0-69.818182h-48.872728l62.836364-62.836363a34.909091 34.909091 0 1 0-49.338182-49.338182L508.741818 372.363636l-67.956363-68.189091a34.909091 34.909091 0 0 0-49.57091 49.338182l62.836364 62.836364h-46.545454a34.909091 34.909091 0 1 0 0 69.818182h67.258181V535.272727h-67.723636a34.909091 34.909091 0 1 0 0 69.818182h67.723636v67.723636a34.909091 34.909091 0 0 0 69.818182 0V605.090909h67.723637a34.909091 34.909091 0 0 0 0-69.818182H544.581818v-48.872727zM1014.690909 779.403636L940.218182 651.636364a28.625455 28.625455 0 0 0-25.134546-14.429091h-148.945454a28.858182 28.858182 0 0 0-25.134546 14.429091l-74.472727 128.930909a29.556364 29.556364 0 0 0 0 29.090909l74.472727 128.930909a28.858182 28.858182 0 0 0 25.134546 14.429091h148.945454a28.625455 28.625455 0 0 0 25.134546-14.429091l74.472727-128.930909a29.556364 29.556364 0 0 0 0-30.254546z m-116.363636 114.269091h-116.363637l-57.716363-99.607272 57.716363-99.84h116.363637l57.483636 99.84z" p-id="19276" fill="#1296db"></path><path d="M840.610909 721.454545a72.843636 72.843636 0 1 0 72.843636 72.843637A72.843636 72.843636 0 0 0 840.610909 721.454545z m0 87.272728a14.661818 14.661818 0 1 1 14.661818-14.429091 14.661818 14.661818 0 0 1-14.661818 14.196363zM428.450909 885.992727h-256a54.690909 54.690909 0 0 1-53.061818-55.854545V165.469091a54.690909 54.690909 0 0 1 53.061818-55.854546h633.018182a54.690909 54.690909 0 0 1 53.061818 55.854546v279.272727a34.909091 34.909091 0 0 0 69.818182 0v-279.272727a124.509091 124.509091 0 0 0-122.88-125.672727H171.752727a124.509091 124.509091 0 0 0-122.88 125.672727v664.669091a124.509091 124.509091 0 0 0 122.88 125.672727h256a34.909091 34.909091 0 1 0 0-69.818182z" p-id="19277" fill="#1296db"></path></svg>