<?xml version="1.0" standalone="no"?><!DOCTYPE svg PUBLIC "-//W3C//DTD SVG 1.1//EN" "http://www.w3.org/Graphics/SVG/1.1/DTD/svg11.dtd"><svg t="1638950325667" class="icon" viewBox="0 0 1024 1024" version="1.1" xmlns="http://www.w3.org/2000/svg" p-id="8128" xmlns:xlink="http://www.w3.org/1999/xlink" width="128" height="128"><defs><style type="text/css"></style></defs><path d="M895.820897 831.731254H703.85929v-96.031994h160.019196c35.320936 0 63.884823-28.563887 63.884823-63.884823V159.916817c0-35.320936-28.563887-63.884823-63.884823-63.884823H160.019258c-35.423315 0-63.987203 28.563887-63.987203 63.884823v224.006398H0.000061v-255.94881c0-70.641872 57.332533-127.974405 127.974406-127.974405h767.84643c70.641872 0 127.974405 57.332533 127.974405 127.974405v575.884823c0 70.641872-57.332533 127.872026-127.974405 127.872026zM275.093843 699.968806c-71.153769-30.304339-121.012597-100.843831-121.012598-183.054589 0-109.955609 89.070186-199.025795 198.923416-199.025795 109.955609 0 199.025795 89.070186 199.025794 199.025795 0 82.415517-50.268346 153.159768-121.729254 183.361728 36.54949 5.733253 70.641872 15.971206 101.867627 29.690062l234.44911-406.037193 84.770246 44.125575-238.74905 413.408518c56.206359 49.756449 91.220156 119.681664 91.220156 210.287543 0 10.85223-2.25235 21.294941-3.173766 31.942411H3.276206c-1.023795-10.647471-3.276145-21.090182-3.276145-31.942411 0-167.80004 117.736453-267.620076 275.093782-291.781644z" p-id="8129" fill="#e89abe"></path></svg>