<?xml version="1.0" standalone="no"?><!DOCTYPE svg PUBLIC "-//W3C//DTD SVG 1.1//EN" "http://www.w3.org/Graphics/SVG/1.1/DTD/svg11.dtd"><svg t="1634978517907" class="icon" viewBox="0 0 1195 1024" version="1.1" xmlns="http://www.w3.org/2000/svg" p-id="20918" xmlns:xlink="http://www.w3.org/1999/xlink" width="56.015625" height="48"><defs><style type="text/css"></style></defs><path d="M481.76378 961.511811c-50.393701-22.173228-94.740157-36.283465-171.338583-86.677165l-30.236221-20.157481c-181.417323-120.944882-256-296.314961-256-447.496063 0-38.299213 6.047244-74.582677 12.094489-106.834645C60.472441 193.511811 126.992126 126.992126 207.622047 124.976378 286.23622 120.944882 401.133858 173.354331 503.937008 453.543307c20.15748 56.440945 28.220472 70.551181 48.377953 133.03937 68.535433-268.094488 169.322835-463.622047 320.503937-540.220472 60.472441-30.23622 126.992126-28.220472 193.511811 8.062992 64.503937 32.251969 98.771654 88.692913 104.818897 163.27559v16.125985c0 231.811024-330.582677 536.188976-393.070866 602.708661-124.976378 126.992126-141.102362 141.102362-179.401575 161.259843-16.125984 18.141732-66.519685-16.125984-116.913385-36.283465z" fill="#FDDFDF" p-id="20919"></path><path d="M586.582677 1021.984252c-20.15748 0-44.346457-12.094488-70.551181-24.188976l-42.330709-18.141733h-2.015748c-12.094488-6.047244-24.188976-10.07874-36.283464-16.125984-36.283465-16.125984-78.614173-32.251969-139.086614-72.566929l-30.236221-20.15748C100.787402 761.952756 2.015748 588.598425 2.015748 407.181102c0-36.283465 4.031496-72.566929 14.110236-112.881889 28.220472-114.897638 100.787402-187.464567 189.480315-189.480315 84.661417-6.047244 209.637795 48.377953 316.472441 340.661417 8.062992 20.15748 14.110236 36.283465 18.141732 48.377953 2.015748 8.062992 6.047244 14.110236 8.062993 22.173228C624.88189 258.015748 727.685039 96.755906 862.740157 28.220472c66.519685-34.267717 141.102362-30.23622 213.669292 8.062993 70.551181 36.283465 108.850394 98.771654 114.897638 179.401574v16.125985c0 217.700787-272.125984 489.826772-374.929134 592.629921-10.07874 10.07874-20.15748 18.141732-26.204725 26.204724-124.976378 126.992126-143.11811 143.11811-181.417322 163.275591-4.031496 6.047244-14.110236 8.062992-22.173229 8.062992z m-98.771653-78.614173l42.330708 18.141732c18.141732 8.062992 44.346457 20.15748 52.409449 20.15748v-2.015748l4.031496-2.015748c36.283465-18.141732 50.393701-32.251969 173.354331-157.228346 6.047244-6.047244 14.110236-16.125984 26.204724-26.204725 98.771654-98.771654 362.834646-360.818898 362.834646-564.409448v-16.125985c-4.031496-66.519685-36.283465-114.897638-94.740158-145.133858-60.472441-32.251969-120.944882-36.283465-175.370078-8.062992C745.826772 133.03937 645.03937 304.377953 572.472441 590.614173l-18.141732 66.519685-22.173229-66.519685c-12.094488-38.299213-20.15748-58.456693-30.23622-82.645669-6.047244-14.110236-12.094488-28.220472-18.141732-50.393701C387.023622 191.496063 280.188976 141.102362 207.622047 145.133858c-70.551181 2.015748-129.007874 62.488189-153.19685 159.244095-8.062992 36.283465-12.094488 68.535433-12.094488 102.803149 0 167.307087 92.724409 328.566929 245.92126 431.370079l30.23622 20.15748c56.440945 38.299213 94.740157 54.425197 131.023622 68.535433 14.110236 6.047244 26.204724 10.07874 38.299213 16.125985z" fill="#EE9B9B" p-id="20920"></path></svg>