<?xml version="1.0" standalone="no"?><!DOCTYPE svg PUBLIC "-//W3C//DTD SVG 1.1//EN" "http://www.w3.org/Graphics/SVG/1.1/DTD/svg11.dtd"><svg t="1637046701581" class="icon" viewBox="0 0 1024 1024" version="1.1" xmlns="http://www.w3.org/2000/svg" p-id="2205" xmlns:xlink="http://www.w3.org/1999/xlink" width="48" height="48"><defs><style type="text/css"></style></defs><path d="M268.8 678.4a64 64 0 1 0 128 0 64 64 0 1 0-128 0z" p-id="2206" fill="#97846c"></path><path d="M870.4 0H153.6C70.4 0 0 70.4 0 153.6v716.8C0 953.6 70.4 1024 153.6 1024h716.8c83.2 0 153.6-70.4 153.6-153.6V153.6C1024 70.4 953.6 0 870.4 0zM332.8 819.2c-76.8 0-140.8-64-140.8-140.8s64-140.8 140.8-140.8c76.8 0 140.8 64 140.8 140.8S416 819.2 332.8 819.2z m160-550.4L352 416c-12.8 6.4-19.2 6.4-32 6.4s-19.2 0-25.6-6.4l-89.6-96c-12.8-6.4-12.8-19.2-12.8-25.6s0-19.2 12.8-32 38.4-12.8 57.6 0l64 64 115.2-115.2c12.8-12.8 38.4-12.8 57.6 0 6.4 6.4 12.8 19.2 12.8 25.6-6.4 19.2-12.8 25.6-19.2 32z m332.8 486.4H588.8c-25.6 0-38.4-25.6-38.4-64s19.2-64 38.4-64h236.8c25.6 0 38.4 25.6 38.4 64 0 32-19.2 64-38.4 64z m0-364.8H588.8c-25.6 0-38.4-25.6-38.4-64s19.2-64 38.4-64h236.8c25.6 0 38.4 25.6 38.4 64s-19.2 64-38.4 64z" p-id="2207" fill="#97846c"></path></svg>