<?xml version="1.0" standalone="no"?><!DOCTYPE svg PUBLIC "-//W3C//DTD SVG 1.1//EN" "http://www.w3.org/Graphics/SVG/1.1/DTD/svg11.dtd"><svg t="1636958981075" class="icon" viewBox="0 0 1024 1024" version="1.1" xmlns="http://www.w3.org/2000/svg" p-id="2723" xmlns:xlink="http://www.w3.org/1999/xlink" width="48" height="48"><defs><style type="text/css"></style></defs><path d="M679.424 107.52H236.544C165.376 107.52 107.52 164.352 107.52 233.984v556.032c0 69.632 57.856 126.464 129.024 126.464h442.88c8.192 0 16.384-0.512 24.064-2.048-9.728-1.536-19.456-3.584-28.672-6.656-4.608-1.536-9.216-3.072-13.824-5.12-1.536-0.512-2.56-1.024-4.096-2.048-1.536-0.512-3.072-1.536-4.608-2.048-3.584-1.536-7.68-3.584-11.264-5.632-3.584-2.048-7.168-4.096-10.752-6.656-1.024-0.512-2.048-1.024-2.56-1.536-2.56-1.536-5.12-3.584-7.68-5.632-2.048-1.536-4.608-3.584-6.656-5.12-1.024-1.024-2.048-2.048-3.072-2.56-3.584-3.072-7.168-6.656-10.752-10.24-3.584-3.584-6.656-7.168-9.728-10.752l-4.608-6.144c-23.04-30.208-36.352-67.584-36.352-108.032 0-99.84 82.432-180.736 183.808-180.224 27.136 0 52.736 5.632 75.776 15.872v-337.92c0-69.632-57.856-126.464-129.024-126.464zM411.648 727.04H295.936c-20.992 0-37.888-16.896-37.888-38.4 0-20.992 16.896-38.4 37.888-38.4h115.712c20.992 0 37.888 17.408 37.888 38.4 0 21.504-16.896 38.4-37.888 38.4z m208.384-176.64H295.936c-20.992 0-37.888-17.408-37.888-38.4s16.896-38.4 37.888-38.4h324.096c20.992 0 37.888 17.408 37.888 38.4s-16.896 38.4-37.888 38.4z m0-176.64H295.936c-20.992 0-37.888-17.408-37.888-38.4s16.896-38.4 37.888-38.4h324.096c20.992 0 37.888 17.408 37.888 38.4s-16.896 38.4-37.888 38.4zM916.48 736.256c0 99.84-82.432 180.736-183.808 180.736-4.608 0-8.704 0-13.312-0.512-5.12-0.512-10.24-1.024-15.36-2.048 2.048-0.512 4.096-1.024 6.656-1.536h0.512c3.072-0.512 5.632-1.536 8.704-2.56 1.024-0.512 1.536-0.512 2.56-1.024l4.608-1.536c2.048-1.024 4.096-1.536 6.656-2.56l6.144-3.072c1.536-0.512 3.072-1.536 4.096-2.048l3.072-1.536c2.048-1.024 3.584-2.048 5.12-3.584 1.024-0.512 2.56-1.536 3.584-2.56 0 0 0.512 0 0.512-0.512 1.024-1.024 2.048-1.536 3.072-2.56 1.536-1.024 3.072-2.56 4.608-3.584 0.512-0.512 1.536-1.024 2.048-2.048 4.608-4.096 9.216-8.704 13.312-13.824 0.512-0.512 1.536-1.536 2.048-2.56 0.512-1.024 1.536-1.536 2.048-2.56 1.024-1.536 2.56-3.072 3.584-5.12 2.56-3.584 4.608-6.656 6.656-10.24 1.024-1.536 1.536-3.072 2.56-5.12l1.536-3.072 1.536-3.072c0.512-1.536 1.536-3.584 2.048-5.12 0.512-1.024 0.512-1.536 1.024-2.56l1.536-4.608c0.512-1.536 1.024-3.072 1.536-5.12 0-1.024 0.512-2.048 1.024-3.584 0-1.024 0.512-2.048 0.512-2.56 0.512-2.048 1.024-4.096 1.024-6.144 0-1.024 0.512-3.072 0.512-3.072V793.6c11.264-4.608 19.456-15.36 19.456-28.672 0-12.8-7.68-23.552-18.432-28.16 0-5.632 0.512-9.216 0.512-9.216v-157.184c3.072 1.536 6.144 2.56 8.704 4.096 57.344 31.232 97.792 91.648 97.792 161.792z" fill="#806d9e" p-id="2724"></path><path d="M808.448 571.392v157.184s-0.512 3.584-0.512 9.216c-3.584-1.536-7.68-2.56-11.776-2.56h-56.832V675.84c0-16.896-13.824-30.72-30.208-30.72-16.896 0-30.208 13.824-30.208 30.72v90.112c0 16.896 13.824 30.72 30.208 30.72h87.552c4.096 0 7.68-1.024 11.264-2.048v11.776s0 2.048-0.512 3.072c-0.512 2.048-0.512 4.096-1.024 6.144 0 1.024-0.512 2.048-0.512 2.56 0 1.024-0.512 2.048-1.024 3.584-0.512 1.536-1.024 3.072-1.536 5.12l-1.536 4.608c-0.512 1.024-0.512 2.048-1.024 2.56-0.512 1.536-1.536 3.584-2.048 5.12l-1.536 3.072-1.536 3.072c-0.512 1.536-1.536 3.072-2.56 5.12-2.048 3.584-4.096 7.168-6.656 10.24-1.024 1.536-2.56 3.072-3.584 5.12-0.512 1.024-1.024 1.536-2.048 2.56-0.512 0.512-1.536 1.536-2.048 2.56-4.096 5.12-8.704 9.728-13.312 13.824-0.512 0.512-1.536 1.024-2.048 2.048-1.536 1.024-3.072 2.56-4.608 3.584-1.024 1.024-2.048 1.536-3.072 2.56l-0.512 0.512c-1.024 1.024-2.56 1.536-3.584 2.56-1.536 1.024-3.584 2.56-5.12 3.584l-3.072 1.536c-1.536 1.024-3.072 1.536-4.096 2.048l-6.144 3.072c-2.048 1.024-4.096 2.048-6.656 2.56l-4.608 1.536c-1.024 0.512-1.536 0.512-2.56 1.024-3.072 1.024-5.632 1.536-8.704 2.56h-0.512c-2.048 0.512-4.096 1.024-6.656 1.536-9.728-1.536-19.456-3.584-28.672-6.656-4.608-1.536-9.216-3.072-13.824-5.12-1.536-0.512-2.56-1.024-4.096-2.048-1.536-0.512-3.072-1.536-4.608-2.048-3.584-1.536-7.68-3.584-11.264-5.632-3.584-2.048-7.168-4.096-10.752-6.656-1.024-0.512-2.048-1.024-2.56-1.536-2.56-1.536-5.12-3.584-7.68-5.632-2.048-1.536-4.608-3.584-6.656-5.12-1.024-1.024-2.048-2.048-3.072-2.56-3.584-3.072-7.168-6.656-10.752-10.24-3.584-3.584-6.656-7.168-9.728-10.752l-4.608-6.144c-23.04-30.208-36.352-67.584-36.352-108.032 0-99.84 82.432-180.736 183.808-180.224 27.136-1.536 52.736 4.096 75.776 14.336z" fill="#806d9e" p-id="2725"></path></svg>