<?xml version="1.0" standalone="no"?><!DOCTYPE svg PUBLIC "-//W3C//DTD SVG 1.1//EN" "http://www.w3.org/Graphics/SVG/1.1/DTD/svg11.dtd"><svg t="1634979442679" class="icon" viewBox="0 0 1024 1024" version="1.1" xmlns="http://www.w3.org/2000/svg" p-id="27673" width="128" height="128" xmlns:xlink="http://www.w3.org/1999/xlink"><defs><style type="text/css"></style></defs><path d="M365.3632 313.7536c23.04 0 41.8816-18.8416 41.8816-41.8816v-79.0528c0-23.04-18.8416-41.8816-41.8816-41.8816s-41.8816 18.8416-41.8816 41.8816v79.0528c0 23.04 18.8416 41.8816 41.8816 41.8816z m0 0" p-id="27674" fill="#f19790"></path><path d="M858.8288 330.24c0-57.5488-47.0016-104.5504-104.5504-104.5504H726.016v56.2176c0 28.7744-23.552 52.224-52.224 52.224-28.7744 0-52.3264-23.552-52.3264-52.3264v-56.2176h-203.776v56.2176c0 28.7744-23.552 52.224-52.224 52.224-28.7744 0-52.224-23.552-52.224-52.224v-56.2176h-29.2864C226.304 225.5872 179.2 272.5888 179.2 330.1376v406.016c0 57.5488 47.0016 104.5504 104.5504 104.5504h470.528c57.5488 0 104.5504-47.0016 104.5504-104.5504V330.24zM754.2784 683.9296c0 28.7744-23.552 52.224-52.224 52.224H336.0768c-28.7744 0-52.224-23.552-52.224-52.224V400.896h470.528v283.0336z m0 0" p-id="27675" fill="#f19790"></path><path d="M673.6896 313.7536c23.04 0 41.8816-18.8416 41.8816-41.8816v-79.0528c0-23.04-18.8416-41.8816-41.8816-41.8816S631.808 169.7792 631.808 192.8192v79.0528c0.1024 23.04 18.8416 41.8816 41.8816 41.8816zM489.472 588.6976c-10.4448 24.7808-18.2272 55.5008-23.1424 92.2624h62.1568c2.048-26.4192 6.0416-49.152 11.9808-68.5056 7.4752-24.7808 17.6128-47.3088 30.5152-67.584 10.6496-16.5888 23.8592-32.1536 39.6288-46.4896v-42.0864H428.544v52.736h110.8992c-22.8352 28.2624-39.5264 54.784-49.9712 79.6672z m0 0" p-id="27676" fill="#f19790"></path></svg>